# xmcd
#
# Track frame offsets:
#	150
#	17877
#	28436
#	43183
#	59310
#	71125
#	85742
#	98721
#	113748
#	127645
#	139377
#	150387
#
# Disc length: 2222 seconds
#
# Revision: 0
# Processed by: cddbd v1.5.2PL0 Copyright (c) Steve Scherf et al.
# Submitted via: EasyCDDAExtractor 16.0.6.1
#
DISCID=9f08ac0c
DTITLE=Συλλογικός δίσκος - Οδός Αριστοτέλους-Γ. Σπανός-Λ. Παπαδόπουλος
DYEAR=1974
DGENRE=Έντεχνη λαϊκή
TTITLE0=Πάριος Γιάννης - Είπα να φύγω [Γ. Σπανού-Λ. Παπαδόπουλου]
TTITLE1=Αλεξίου Χάρις - Και [Γ. Σπανού-Λ. Παπαδόπουλου]
TTITLE2=Καλατζής Γιάννης - Αμανάμ [. ΓΣπανού-Λ. Παπαδόπουλου]
TTITLE3=Πάριος Γιάννης - Σαν την πικροδάφνη [. ΓΣπανού-Λ. Παπαδόπουλου]
TTITLE4=Καλατζής Γιάννης - Μπουζουκομπαγλαμάδες [Γ. Σπανού-Λ. Παπαδόπουλου]
TTITLE5=Αλεξίου Χάρις - Γύριζαν τα τραίνα [Γ. Σπανού-Λ. Παπαδόπουλου]
TTITLE6=Καλατζής Γιάννης - Κι ακαρτέρει [Γ. Σπανού-Λ. Παπαδόπουλου]
TTITLE7=Πάριος Γιάννης - Ήταν μια φορά [Γ. Σπανού-Λ. Παπαδόπουλου]
TTITLE8=Αλεξίου Χάρις - Το μεθυσμενάκι [Γ. Σπανού-Λ. Παπαδόπουλου]
TTITLE9=Καλατζής Γιάννης - Του γυαλού τα κύματα [Γ. Σπανού-Λ. Παπαδόπουλου]
TTITLE10=Πάριος Γιάννης - Μη με κοιτάς [Γ. Σπανού-Λ. Παπαδόπουλου]
TTITLE11=Αλεξίου Χάρις - Οδός Αριστοτέλους [Γ. Σπανού-Λ. Παπαδόπουλου]
EXTD=
EXTT0=
EXTT1=
EXTT2=
EXTT3=
EXTT4=
EXTT5=
EXTT6=
EXTT7=
EXTT8=
EXTT9=
EXTT10=
EXTT11=
PLAYORDER=
